<svg width="9" height="14" viewBox="0 0 9 14" fill="none" xmlns="http://www.w3.org/2000/svg">
<path fill-rule="evenodd" clip-rule="evenodd" d="M0.863078 0.672557C0.602729 0.932907 0.602729 1.35502 0.863078 1.61537L6.3916 7.14388L4.16022 9.37045C3.89987 9.6308 3.89987 10.0529 4.16022 10.3133C4.42057 10.5736 4.84268 10.5736 5.10303 10.3133L7.80581 7.61529C8.06616 7.35494 8.06616 6.93283 7.80581 6.67248L1.80589 0.672557C1.54554 0.412208 1.12343 0.412208 0.863078 0.672557Z" fill="black"/>
<path fill-rule="evenodd" clip-rule="evenodd" d="M2.74494 11.7328C2.48459 11.4724 2.06248 11.4724 1.80213 11.7328L0.859325 12.6756C0.598976 12.9359 0.598976 13.358 0.859325 13.6184C1.11967 13.8787 1.54178 13.8787 1.80213 13.6184L2.74494 12.6756C3.00529 12.4152 3.00529 11.9931 2.74494 11.7328Z" fill="black"/>
</svg>
